<svg xmlns="http://www.w3.org/2000/svg" viewBox="0 0 100 100" width="100" height="100">
  <path d="M50 90 L50 50" stroke="#16a34a" stroke-width="1.5" fill="none"/>
  <path d="M50 50 L35 35" stroke="#16a34a" stroke-width="1" fill="none"/>
  <path d="M50 50 L65 35" stroke="#16a34a" stroke-width="1" fill="none"/>
  <path d="M50 50 L40 25" stroke="#16a34a" stroke-width="1" fill="none"/>
  <path d="M50 50 L60 25" stroke="#16a34a" stroke-width="1" fill="none"/>
  <path d="M50 50 L50 20" stroke="#16a34a" stroke-width="1" fill="none"/>
  <circle cx="35" cy="35" r="3" fill="white"/>
  <circle cx="65" cy="35" r="3" fill="white"/>
  <circle cx="40" cy="25" r="3" fill="white"/>
  <circle cx="60" cy="25" r="3" fill="white"/>
  <circle cx="50" cy="20" r="3" fill="white"/>
  <circle cx="30" cy="28" r="2.5" fill="#f5f5f4"/>
  <circle cx="70" cy="28" r="2.5" fill="#f5f5f4"/>
  <circle cx="45" cy="15" r="2.5" fill="#f5f5f4"/>
  <circle cx="55" cy="15" r="2.5" fill="#f5f5f4"/>
  <circle cx="50" cy="12" r="2" fill="#f5f5f4"/>
  <circle cx="38" cy="20" r="2" fill="#e7e5e4"/>
  <circle cx="62" cy="20" r="2" fill="#e7e5e4"/>
</svg>