<svg xmlns="http://www.w3.org/2000/svg" viewBox="0 0 100 100" width="100" height="100">
  <path d="M50 90 L50 45" stroke="#16a34a" stroke-width="2" fill="none"/>
  <path d="M50 55 L40 50" stroke="#16a34a" stroke-width="1.5" fill="none"/>
  <path d="M50 65 L60 60" stroke="#16a34a" stroke-width="1.5" fill="none"/>
  <path d="M40 50 Q35 42 40 35 Q45 38 42 45 Q40 48 40 50Z" fill="#3b82f6"/>
  <path d="M42 45 Q38 38 42 30 Q47 33 44 40 Q42 43 42 45Z" fill="#60a5fa"/>
  <path d="M60 60 Q65 52 60 45 Q55 48 58 55 Q60 58 60 60Z" fill="#3b82f6"/>
  <path d="M58 55 Q62 48 58 40 Q53 43 56 50 Q58 53 58 55Z" fill="#60a5fa"/>
  <path d="M50 45 Q45 37 50 30 Q55 33 52 40 Q50 43 50 45Z" fill="#2563eb"/>
  <path d="M52 40 Q48 33 52 25 Q57 28 54 35 Q52 38 52 40Z" fill="#3b82f6"/>
  <path d="M40 35 Q36 28 40 22 Q44 25 42 30 Q40 33 40 35Z" fill="#60a5fa"/>
  <path d="M60 45 Q64 38 60 32 Q56 35 58 40 Q60 43 60 45Z" fill="#60a5fa"/>
</svg>