<svg xmlns="http://www.w3.org/2000/svg" viewBox="0 0 100 100" width="100" height="100">
  <g transform="translate(50,50)">
    <circle cx="0" cy="-14" r="9" fill="#fda4af"/>
    <circle cx="12" cy="-7" r="9" fill="#fda4af"/>
    <circle cx="12" cy="7" r="9" fill="#fda4af"/>
    <circle cx="0" cy="14" r="9" fill="#fda4af"/>
    <circle cx="-12" cy="7" r="9" fill="#fda4af"/>
    <circle cx="-12" cy="-7" r="9" fill="#fda4af"/>
    <circle cx="0" cy="-10" r="6" fill="#fb7185"/>
    <circle cx="9" cy="-5" r="6" fill="#fb7185"/>
    <circle cx="9" cy="5" r="6" fill="#fb7185"/>
    <circle cx="0" cy="10" r="6" fill="#fb7185"/>
    <circle cx="-9" cy="5" r="6" fill="#fb7185"/>
    <circle cx="-9" cy="-5" r="6" fill="#fb7185"/>
    <circle cx="0" cy="-6" r="4" fill="#f43f5e"/>
    <circle cx="5" cy="-3" r="4" fill="#f43f5e"/>
    <circle cx="5" cy="3" r="4" fill="#f43f5e"/>
    <circle cx="0" cy="6" r="4" fill="#f43f5e"/>
    <circle cx="-5" cy="3" r="4" fill="#f43f5e"/>
    <circle cx="-5" cy="-3" r="4" fill="#f43f5e"/>
    <circle cx="0" cy="0" r="3" fill="#e11d48"/>
  </g>
</svg>