<svg xmlns="http://www.w3.org/2000/svg" viewBox="0 0 100 100" width="100" height="100">
  <path d="M50 85 L50 45" stroke="#16a34a" stroke-width="2.5" fill="none"/>
  <g transform="translate(50,35)">
    <path d="M0-20 Q-10-15-12-5 Q-15 5-8 12 Q0 15 8 12 Q15 5 12-5 Q10-15 0-20Z" fill="#f472b6"/>
    <path d="M0-16 Q-8-12-10-4 Q-12 4-6 8 Q0 10 6 8 Q12 4 10-4 Q8-12 0-16Z" fill="#fb7185"/>
    <path d="M0-12 Q-6-9-7-3 Q-8 3-4 6 Q0 7 4 6 Q8 3 7-3 Q6-9 0-12Z" fill="#f43f5e"/>
    <path d="M-15-2 Q-20 0-18 5 Q-15 8-10 6" fill="#f472b6"/>
    <path d="M15-2 Q20 0 18 5 Q15 8 10 6" fill="#f472b6"/>
    <path d="M-12 10 Q-15 15-10 18 Q-5 16-3 12" fill="#f472b6"/>
    <path d="M12 10 Q15 15 10 18 Q5 16 3 12" fill="#f472b6"/>
  </g>
</svg>