<svg xmlns="http://www.w3.org/2000/svg" viewBox="0 0 100 100" width="100" height="100">
  <g transform="translate(50,50)">
    <ellipse cx="0" cy="-16" rx="4" ry="10" fill="#dc2626" transform="rotate(0)"/>
    <ellipse cx="0" cy="-16" rx="4" ry="10" fill="#dc2626" transform="rotate(24)"/>
    <ellipse cx="0" cy="-16" rx="4" ry="10" fill="#dc2626" transform="rotate(48)"/>
    <ellipse cx="0" cy="-16" rx="4" ry="10" fill="#dc2626" transform="rotate(72)"/>
    <ellipse cx="0" cy="-16" rx="4" ry="10" fill="#dc2626" transform="rotate(96)"/>
    <ellipse cx="0" cy="-16" rx="4" ry="10" fill="#dc2626" transform="rotate(120)"/>
    <ellipse cx="0" cy="-16" rx="4" ry="10" fill="#dc2626" transform="rotate(144)"/>
    <ellipse cx="0" cy="-16" rx="4" ry="10" fill="#dc2626" transform="rotate(168)"/>
    <ellipse cx="0" cy="-16" rx="4" ry="10" fill="#dc2626" transform="rotate(192)"/>
    <ellipse cx="0" cy="-16" rx="4" ry="10" fill="#dc2626" transform="rotate(216)"/>
    <ellipse cx="0" cy="-16" rx="4" ry="10" fill="#dc2626" transform="rotate(240)"/>
    <ellipse cx="0" cy="-16" rx="4" ry="10" fill="#dc2626" transform="rotate(264)"/>
    <ellipse cx="0" cy="-16" rx="4" ry="10" fill="#dc2626" transform="rotate(288)"/>
    <ellipse cx="0" cy="-16" rx="4" ry="10" fill="#dc2626" transform="rotate(312)"/>
    <ellipse cx="0" cy="-16" rx="4" ry="10" fill="#dc2626" transform="rotate(336)"/>
    <ellipse cx="0" cy="-11" rx="3" ry="7" fill="#ef4444" transform="rotate(12)"/>
    <ellipse cx="0" cy="-11" rx="3" ry="7" fill="#ef4444" transform="rotate(36)"/>
    <ellipse cx="0" cy="-11" rx="3" ry="7" fill="#ef4444" transform="rotate(60)"/>
    <ellipse cx="0" cy="-11" rx="3" ry="7" fill="#ef4444" transform="rotate(84)"/>
    <ellipse cx="0" cy="-11" rx="3" ry="7" fill="#ef4444" transform="rotate(108)"/>
    <ellipse cx="0" cy="-11" rx="3" ry="7" fill="#ef4444" transform="rotate(132)"/>
    <ellipse cx="0" cy="-11" rx="3" ry="7" fill="#ef4444" transform="rotate(156)"/>
    <ellipse cx="0" cy="-11" rx="3" ry="7" fill="#ef4444" transform="rotate(180)"/>
    <ellipse cx="0" cy="-11" rx="3" ry="7" fill="#ef4444" transform="rotate(204)"/>
    <ellipse cx="0" cy="-11" rx="3" ry="7" fill="#ef4444" transform="rotate(228)"/>
    <ellipse cx="0" cy="-11" rx="3" ry="7" fill="#ef4444" transform="rotate(252)"/>
    <ellipse cx="0" cy="-11" rx="3" ry="7" fill="#ef4444" transform="rotate(276)"/>
    <ellipse cx="0" cy="-11" rx="3" ry="7" fill="#ef4444" transform="rotate(300)"/>
    <ellipse cx="0" cy="-11" rx="3" ry="7" fill="#ef4444" transform="rotate(324)"/>
    <ellipse cx="0" cy="-11" rx="3" ry="7" fill="#ef4444" transform="rotate(348)"/>
    <circle cx="0" cy="0" r="6" fill="#b91c1c"/>
    <circle cx="0" cy="0" r="3" fill="#991b1b"/>
  </g>
</svg>