<svg xmlns="http://www.w3.org/2000/svg" viewBox="0 0 100 100" width="100" height="100">
  <g transform="translate(50,50)">
    <ellipse cx="0" cy="-16" rx="5" ry="12" fill="white" transform="rotate(0)"/>
    <ellipse cx="0" cy="-16" rx="5" ry="12" fill="white" transform="rotate(30)"/>
    <ellipse cx="0" cy="-16" rx="5" ry="12" fill="white" transform="rotate(60)"/>
    <ellipse cx="0" cy="-16" rx="5" ry="12" fill="white" transform="rotate(90)"/>
    <ellipse cx="0" cy="-16" rx="5" ry="12" fill="white" transform="rotate(120)"/>
    <ellipse cx="0" cy="-16" rx="5" ry="12" fill="white" transform="rotate(150)"/>
    <ellipse cx="0" cy="-16" rx="5" ry="12" fill="white" transform="rotate(180)"/>
    <ellipse cx="0" cy="-16" rx="5" ry="12" fill="white" transform="rotate(210)"/>
    <ellipse cx="0" cy="-16" rx="5" ry="12" fill="white" transform="rotate(240)"/>
    <ellipse cx="0" cy="-16" rx="5" ry="12" fill="white" transform="rotate(270)"/>
    <ellipse cx="0" cy="-16" rx="5" ry="12" fill="white" transform="rotate(300)"/>
    <ellipse cx="0" cy="-16" rx="5" ry="12" fill="white" transform="rotate(330)"/>
    <circle cx="0" cy="0" r="7" fill="#fbbf24"/>
    <circle cx="0" cy="0" r="4" fill="#f59e0b"/>
  </g>
</svg>