<svg xmlns="http://www.w3.org/2000/svg" viewBox="0 0 100 100" width="100" height="100">
  <path d="M50 90 L50 35" stroke="#16a34a" stroke-width="2" fill="none"/>
  <path d="M50 35 Q45 28 38 25 Q42 22 50 25 Q58 22 62 25 Q55 28 50 35Z" fill="#fbbf24"/>
  <path d="M50 42 Q45 35 38 32 Q42 29 50 32 Q58 29 62 32 Q55 35 50 42Z" fill="#facc15"/>
  <path d="M50 49 Q45 42 38 39 Q42 36 50 39 Q58 36 62 39 Q55 42 50 49Z" fill="#fbbf24"/>
  <path d="M50 56 Q45 49 38 46 Q42 43 50 46 Q58 43 62 46 Q55 49 50 56Z" fill="#facc15"/>
  <path d="M50 63 Q45 56 38 53 Q42 50 50 53 Q58 50 62 53 Q55 56 50 63Z" fill="#fbbf24"/>
  <path d="M50 70 Q45 63 38 60 Q42 57 50 60 Q58 57 62 60 Q55 63 50 70Z" fill="#facc15"/>
</svg>