<svg xmlns="http://www.w3.org/2000/svg" viewBox="0 0 100 100" width="100" height="100">
  <g transform="translate(50,50)">
    <ellipse cx="0" cy="-14" rx="12" ry="16" fill="#dc2626" transform="rotate(0)"/>
    <ellipse cx="0" cy="-14" rx="12" ry="16" fill="#dc2626" transform="rotate(72)"/>
    <ellipse cx="0" cy="-14" rx="12" ry="16" fill="#dc2626" transform="rotate(144)"/>
    <ellipse cx="0" cy="-14" rx="12" ry="16" fill="#dc2626" transform="rotate(216)"/>
    <ellipse cx="0" cy="-14" rx="12" ry="16" fill="#dc2626" transform="rotate(288)"/>
    <ellipse cx="0" cy="-10" rx="8" ry="12" fill="#ef4444" transform="rotate(36)"/>
    <ellipse cx="0" cy="-10" rx="8" ry="12" fill="#ef4444" transform="rotate(108)"/>
    <ellipse cx="0" cy="-10" rx="8" ry="12" fill="#ef4444" transform="rotate(180)"/>
    <ellipse cx="0" cy="-10" rx="8" ry="12" fill="#ef4444" transform="rotate(252)"/>
    <ellipse cx="0" cy="-10" rx="8" ry="12" fill="#ef4444" transform="rotate(324)"/>
    <line x1="0" y1="0" x2="0" y2="-20" stroke="#92400e" stroke-width="2"/>
    <circle cx="0" cy="-20" r="2" fill="#fbbf24"/>
    <circle cx="-3" cy="-18" r="1.5" fill="#fbbf24"/>
    <circle cx="3" cy="-18" r="1.5" fill="#fbbf24"/>
    <circle cx="0" cy="-16" r="1.5" fill="#fbbf24"/>
  </g>
</svg>