<svg xmlns="http://www.w3.org/2000/svg" viewBox="0 0 100 100" width="100" height="100">
  <g transform="translate(50,50)">
    <path d="M0-25 Q-8-15-5-5 Q-10 0-8 10 Q-3 5 0 8 Q3 5 8 10 Q10 0 5-5 Q8-15 0-25Z" fill="#7c3aed"/>
    <path d="M0-22 Q-6-12-4-4 Q-8 0-6 8 Q-2 4 0 6 Q2 4 6 8 Q8 0 4-4 Q6-12 0-22Z" fill="#8b5cf6"/>
    <path d="M-8-5 Q-18 0-15 12 Q-10 8-5 10 Q-8 5-8-5Z" fill="#6d28d9"/>
    <path d="M8-5 Q18 0 15 12 Q10 8 5 10 Q8 5 8-5Z" fill="#6d28d9"/>
    <path d="M-5 8 Q-12 15-8 22 Q-3 18 0 15 Q-3 12-5 8Z" fill="#7c3aed"/>
    <path d="M5 8 Q12 15 8 22 Q3 18 0 15 Q3 12 5 8Z" fill="#7c3aed"/>
    <circle cx="0" cy="0" r="3" fill="#fbbf24"/>
  </g>
</svg>