<svg xmlns="http://www.w3.org/2000/svg" viewBox="0 0 100 100" width="100" height="100">
  <g transform="translate(50,50)">
    <ellipse cx="0" cy="-14" rx="7" ry="12" fill="white" transform="rotate(0)"/>
    <ellipse cx="0" cy="-14" rx="7" ry="12" fill="white" transform="rotate(72)"/>
    <ellipse cx="0" cy="-14" rx="7" ry="12" fill="white" transform="rotate(144)"/>
    <ellipse cx="0" cy="-14" rx="7" ry="12" fill="white" transform="rotate(216)"/>
    <ellipse cx="0" cy="-14" rx="7" ry="12" fill="white" transform="rotate(288)"/>
    <ellipse cx="0" cy="-10" rx="5" ry="8" fill="#f5f5f4" transform="rotate(36)"/>
    <ellipse cx="0" cy="-10" rx="5" ry="8" fill="#f5f5f4" transform="rotate(108)"/>
    <ellipse cx="0" cy="-10" rx="5" ry="8" fill="#f5f5f4" transform="rotate(180)"/>
    <ellipse cx="0" cy="-10" rx="5" ry="8" fill="#f5f5f4" transform="rotate(252)"/>
    <ellipse cx="0" cy="-10" rx="5" ry="8" fill="#f5f5f4" transform="rotate(324)"/>
    <circle cx="0" cy="0" r="4" fill="#fbbf24"/>
    <circle cx="0" cy="0" r="2" fill="#f59e0b"/>
  </g>
</svg>