<svg xmlns="http://www.w3.org/2000/svg" viewBox="0 0 100 100" width="100" height="100">
  <g transform="translate(50,50)">
    <path d="M0-28 Q8-10 0 2 Q-8-10 0-28Z" fill="#f5f5f4"/>
    <path d="M0-28 Q8-10 0 2 Q-8-10 0-28Z" fill="#f5f5f4" transform="rotate(60)"/>
    <path d="M0-28 Q8-10 0 2 Q-8-10 0-28Z" fill="#f5f5f4" transform="rotate(120)"/>
    <path d="M0-28 Q8-10 0 2 Q-8-10 0-28Z" fill="#f5f5f4" transform="rotate(180)"/>
    <path d="M0-28 Q8-10 0 2 Q-8-10 0-28Z" fill="#f5f5f4" transform="rotate(240)"/>
    <path d="M0-28 Q8-10 0 2 Q-8-10 0-28Z" fill="#f5f5f4" transform="rotate(300)"/>
    <path d="M0-24 Q5-10 0-2 Q-5-10 0-24Z" fill="#d6d3d1" transform="rotate(30)"/>
    <path d="M0-24 Q5-10 0-2 Q-5-10 0-24Z" fill="#d6d3d1" transform="rotate(90)"/>
    <path d="M0-24 Q5-10 0-2 Q-5-10 0-24Z" fill="#d6d3d1" transform="rotate(150)"/>
    <path d="M0-24 Q5-10 0-2 Q-5-10 0-24Z" fill="#d6d3d1" transform="rotate(210)"/>
    <path d="M0-24 Q5-10 0-2 Q-5-10 0-24Z" fill="#d6d3d1" transform="rotate(270)"/>
    <path d="M0-24 Q5-10 0-2 Q-5-10 0-24Z" fill="#d6d3d1" transform="rotate(330)"/>
    <line x1="0" y1="0" x2="0" y2="-6" stroke="#a16207" stroke-width="1.5"/>
    <line x1="0" y1="0" x2="5" y2="-4" stroke="#a16207" stroke-width="1.5"/>
    <line x1="0" y1="0" x2="-5" y2="-4" stroke="#a16207" stroke-width="1.5"/>
    <circle cx="0" cy="-6" r="1.5" fill="#a16207"/>
    <circle cx="5" cy="-4" r="1.5" fill="#a16207"/>
    <circle cx="-5" cy="-4" r="1.5" fill="#a16207"/>
  </g>
</svg>