<svg xmlns="http://www.w3.org/2000/svg" viewBox="0 0 100 100" width="100" height="100">
  <g transform="translate(50,55)">
    <path d="M0-25 Q-12-15-8-5 Q-15 0-12 10 Q-5 5 0 8 Q5 5 12 10 Q15 0 8-5 Q12-15 0-25Z" fill="#a855f7"/>
    <path d="M0-20 Q-8-12-6-5 Q-10 0-8 6 Q-3 3 0 5 Q3 3 8 6 Q10 0 6-5 Q8-12 0-20Z" fill="#c084fc"/>
    <ellipse cx="0" cy="8" rx="8" ry="12" fill="#9333ea"/>
    <ellipse cx="0" cy="8" rx="5" ry="8" fill="#7e22ce"/>
    <circle cx="0" cy="3" r="3" fill="#fbbf24"/>
  </g>
</svg>