<svg xmlns="http://www.w3.org/2000/svg" viewBox="0 0 100 100" width="100" height="100">
  <g transform="translate(50,50)">
    <ellipse cx="0" cy="-14" rx="14" ry="16" fill="#dc2626" transform="rotate(0)"/>
    <ellipse cx="0" cy="-14" rx="14" ry="16" fill="#dc2626" transform="rotate(90)"/>
    <ellipse cx="0" cy="-14" rx="14" ry="16" fill="#dc2626" transform="rotate(180)"/>
    <ellipse cx="0" cy="-14" rx="14" ry="16" fill="#dc2626" transform="rotate(270)"/>
    <ellipse cx="0" cy="-10" rx="10" ry="12" fill="#ef4444" transform="rotate(45)"/>
    <ellipse cx="0" cy="-10" rx="10" ry="12" fill="#ef4444" transform="rotate(135)"/>
    <ellipse cx="0" cy="-10" rx="10" ry="12" fill="#ef4444" transform="rotate(225)"/>
    <ellipse cx="0" cy="-10" rx="10" ry="12" fill="#ef4444" transform="rotate(315)"/>
    <circle cx="0" cy="0" r="8" fill="#1c1917"/>
    <circle cx="0" cy="0" r="5" fill="#292524"/>
    <circle cx="-2" cy="-2" r="1.5" fill="#44403c"/>
    <circle cx="2" cy="-2" r="1.5" fill="#44403c"/>
    <circle cx="0" cy="2" r="1.5" fill="#44403c"/>
    <circle cx="-3" cy="1" r="1" fill="#44403c"/>
    <circle cx="3" cy="1" r="1" fill="#44403c"/>
  </g>
</svg>