<svg xmlns="http://www.w3.org/2000/svg" viewBox="0 0 100 100" width="100" height="100">
  <g transform="translate(50,50)">
    <circle cx="0" cy="-16" r="11" fill="#fb923c"/>
    <circle cx="14" cy="-8" r="11" fill="#fb923c"/>
    <circle cx="14" cy="8" r="11" fill="#fb923c"/>
    <circle cx="0" cy="16" r="11" fill="#fb923c"/>
    <circle cx="-14" cy="8" r="11" fill="#fb923c"/>
    <circle cx="-14" cy="-8" r="11" fill="#fb923c"/>
    <circle cx="0" cy="-11" r="8" fill="#f97316"/>
    <circle cx="10" cy="-5" r="8" fill="#f97316"/>
    <circle cx="10" cy="5" r="8" fill="#f97316"/>
    <circle cx="0" cy="11" r="8" fill="#f97316"/>
    <circle cx="-10" cy="5" r="8" fill="#f97316"/>
    <circle cx="-10" cy="-5" r="8" fill="#f97316"/>
    <circle cx="0" cy="-7" r="5" fill="#ea580c"/>
    <circle cx="6" cy="-3" r="5" fill="#ea580c"/>
    <circle cx="6" cy="3" r="5" fill="#ea580c"/>
    <circle cx="0" cy="7" r="5" fill="#ea580c"/>
    <circle cx="-6" cy="3" r="5" fill="#ea580c"/>
    <circle cx="-6" cy="-3" r="5" fill="#ea580c"/>
    <circle cx="0" cy="0" r="3" fill="#c2410c"/>
  </g>
</svg>