<svg xmlns="http://www.w3.org/2000/svg" viewBox="0 0 100 100" width="100" height="100">
  <g transform="translate(50,50)">
    <ellipse cx="0" cy="-8" rx="12" ry="16" fill="#f472b6" transform="rotate(0)"/>
    <ellipse cx="0" cy="-8" rx="12" ry="16" fill="#f472b6" transform="rotate(60)"/>
    <ellipse cx="0" cy="-8" rx="12" ry="16" fill="#f472b6" transform="rotate(120)"/>
    <ellipse cx="0" cy="-8" rx="12" ry="16" fill="#f472b6" transform="rotate(180)"/>
    <ellipse cx="0" cy="-8" rx="12" ry="16" fill="#f472b6" transform="rotate(240)"/>
    <ellipse cx="0" cy="-8" rx="12" ry="16" fill="#f472b6" transform="rotate(300)"/>
    <ellipse cx="0" cy="-5" rx="8" ry="10" fill="#ec4899" transform="rotate(30)"/>
    <ellipse cx="0" cy="-5" rx="8" ry="10" fill="#ec4899" transform="rotate(90)"/>
    <ellipse cx="0" cy="-5" rx="8" ry="10" fill="#ec4899" transform="rotate(150)"/>
    <ellipse cx="0" cy="-5" rx="8" ry="10" fill="#ec4899" transform="rotate(210)"/>
    <ellipse cx="0" cy="-5" rx="8" ry="10" fill="#ec4899" transform="rotate(270)"/>
    <ellipse cx="0" cy="-5" rx="8" ry="10" fill="#ec4899" transform="rotate(330)"/>
    <circle cx="0" cy="0" r="5" fill="#db2777"/>
    <circle cx="0" cy="0" r="2.5" fill="#be185d"/>
  </g>
</svg>