<svg xmlns="http://www.w3.org/2000/svg" viewBox="0 0 100 100" width="100" height="100">
  <g transform="translate(50,50)">
    <ellipse cx="0" cy="-18" rx="5" ry="12" fill="#fbbf24" transform="rotate(0)"/>
    <ellipse cx="0" cy="-18" rx="5" ry="12" fill="#fbbf24" transform="rotate(22.5)"/>
    <ellipse cx="0" cy="-18" rx="5" ry="12" fill="#fbbf24" transform="rotate(45)"/>
    <ellipse cx="0" cy="-18" rx="5" ry="12" fill="#fbbf24" transform="rotate(67.5)"/>
    <ellipse cx="0" cy="-18" rx="5" ry="12" fill="#fbbf24" transform="rotate(90)"/>
    <ellipse cx="0" cy="-18" rx="5" ry="12" fill="#fbbf24" transform="rotate(112.5)"/>
    <ellipse cx="0" cy="-18" rx="5" ry="12" fill="#fbbf24" transform="rotate(135)"/>
    <ellipse cx="0" cy="-18" rx="5" ry="12" fill="#fbbf24" transform="rotate(157.5)"/>
    <ellipse cx="0" cy="-18" rx="5" ry="12" fill="#fbbf24" transform="rotate(180)"/>
    <ellipse cx="0" cy="-18" rx="5" ry="12" fill="#fbbf24" transform="rotate(202.5)"/>
    <ellipse cx="0" cy="-18" rx="5" ry="12" fill="#fbbf24" transform="rotate(225)"/>
    <ellipse cx="0" cy="-18" rx="5" ry="12" fill="#fbbf24" transform="rotate(247.5)"/>
    <ellipse cx="0" cy="-18" rx="5" ry="12" fill="#fbbf24" transform="rotate(270)"/>
    <ellipse cx="0" cy="-18" rx="5" ry="12" fill="#fbbf24" transform="rotate(292.5)"/>
    <ellipse cx="0" cy="-18" rx="5" ry="12" fill="#fbbf24" transform="rotate(315)"/>
    <ellipse cx="0" cy="-18" rx="5" ry="12" fill="#fbbf24" transform="rotate(337.5)"/>
    <circle cx="0" cy="0" r="10" fill="#78350f"/>
    <circle cx="0" cy="0" r="6" fill="#92400e"/>
  </g>
</svg>