<svg xmlns="http://www.w3.org/2000/svg" viewBox="0 0 100 100" width="100" height="100">
  <path d="M50 85 L50 40" stroke="#16a34a" stroke-width="3" fill="none"/>
  <path d="M50 70 Q35 65 30 55" stroke="#16a34a" stroke-width="2" fill="none"/>
  <path d="M50 70 Q65 65 70 55" stroke="#16a34a" stroke-width="2" fill="none"/>
  <path d="M35 42 Q50 10 65 42 Q65 50 50 52 Q35 50 35 42Z" fill="#dc2626"/>
  <path d="M35 42 Q42 20 50 18 Q50 25 50 52 Q35 50 35 42Z" fill="#ef4444"/>
  <path d="M65 42 Q58 20 50 18 Q50 25 50 52 Q65 50 65 42Z" fill="#ef4444"/>
  <ellipse cx="50" cy="20" rx="3" ry="2" fill="#fbbf24"/>
</svg>